<mxfile host="Electron" agent="Mozilla/5.0 (Windows NT 10.0; Win64; x64) AppleWebKit/537.36 (KHTML, like Gecko) draw.io/26.1.1 Chrome/132.0.6834.210 Electron/34.3.3 Safari/537.36" version="26.1.1">
  <diagram name="Page-1" id="vdVh9yl3yeDXHeDdEB2C">
    <mxGraphModel dx="1120" dy="1672" grid="1" gridSize="10" guides="1" tooltips="1" connect="1" arrows="1" fold="1" page="1" pageScale="1" pageWidth="850" pageHeight="1100" math="0" shadow="0">
      <root>
        <mxCell id="0" />
        <mxCell id="1" parent="0" />
        <mxCell id="ecIpMmpW2eILmPy1O6b8-1" value="&lt;font style=&quot;font-size: 30px;&quot;&gt;&lt;b style=&quot;&quot;&gt;Data Mart&lt;/b&gt; &lt;/font&gt;&lt;font style=&quot;font-size: 20px;&quot;&gt;(Star Schema)&lt;/font&gt;" style="text;html=1;align=center;verticalAlign=middle;whiteSpace=wrap;rounded=0;" parent="1" vertex="1">
          <mxGeometry x="88" y="-13" width="290" height="70" as="geometry" />
        </mxCell>
        <mxCell id="ecIpMmpW2eILmPy1O6b8-15" value="gold.dim_customers" style="shape=table;startSize=40;container=1;collapsible=1;childLayout=tableLayout;fixedRows=1;rowLines=0;fontStyle=1;align=center;resizeLast=1;html=1;rounded=1;fillColor=#e3c800;strokeColor=#B09500;fontColor=#000000;fontSize=20;" parent="1" vertex="1">
          <mxGeometry x="100" y="70" width="220" height="455" as="geometry" />
        </mxCell>
        <mxCell id="ecIpMmpW2eILmPy1O6b8-16" value="" style="shape=tableRow;horizontal=0;startSize=0;swimlaneHead=0;swimlaneBody=0;fillColor=none;collapsible=0;dropTarget=0;points=[[0,0.5],[1,0.5]];portConstraint=eastwest;top=0;left=0;right=0;bottom=1;" parent="ecIpMmpW2eILmPy1O6b8-15" vertex="1">
          <mxGeometry y="40" width="220" height="33" as="geometry" />
        </mxCell>
        <mxCell id="ecIpMmpW2eILmPy1O6b8-17" value="PK" style="shape=partialRectangle;connectable=0;fillColor=none;top=0;left=0;bottom=0;right=0;fontStyle=1;overflow=hidden;whiteSpace=wrap;html=1;" parent="ecIpMmpW2eILmPy1O6b8-16" vertex="1">
          <mxGeometry width="30" height="33" as="geometry">
            <mxRectangle width="30" height="33" as="alternateBounds" />
          </mxGeometry>
        </mxCell>
        <mxCell id="ecIpMmpW2eILmPy1O6b8-18" value="&lt;span style=&quot;background-color: rgb(77, 77, 77);&quot;&gt;customer_key&lt;/span&gt;" style="shape=partialRectangle;connectable=0;fillColor=none;top=0;left=0;bottom=0;right=0;align=left;spacingLeft=6;fontStyle=5;overflow=hidden;whiteSpace=wrap;html=1;fontSize=20;" parent="ecIpMmpW2eILmPy1O6b8-16" vertex="1">
          <mxGeometry x="30" width="190" height="33" as="geometry">
            <mxRectangle width="190" height="33" as="alternateBounds" />
          </mxGeometry>
        </mxCell>
        <mxCell id="ecIpMmpW2eILmPy1O6b8-19" value="" style="shape=tableRow;horizontal=0;startSize=0;swimlaneHead=0;swimlaneBody=0;fillColor=none;collapsible=0;dropTarget=0;points=[[0,0.5],[1,0.5]];portConstraint=eastwest;top=0;left=0;right=0;bottom=0;fontSize=20;" parent="ecIpMmpW2eILmPy1O6b8-15" vertex="1">
          <mxGeometry y="73" width="220" height="42" as="geometry" />
        </mxCell>
        <mxCell id="ecIpMmpW2eILmPy1O6b8-20" value="" style="shape=partialRectangle;connectable=0;fillColor=none;top=0;left=0;bottom=0;right=0;editable=1;overflow=hidden;whiteSpace=wrap;html=1;fontSize=20;" parent="ecIpMmpW2eILmPy1O6b8-19" vertex="1">
          <mxGeometry width="30" height="42" as="geometry">
            <mxRectangle width="30" height="42" as="alternateBounds" />
          </mxGeometry>
        </mxCell>
        <mxCell id="ecIpMmpW2eILmPy1O6b8-21" value="customer_id" style="shape=partialRectangle;connectable=0;fillColor=none;top=0;left=0;bottom=0;right=0;align=left;spacingLeft=6;overflow=hidden;whiteSpace=wrap;html=1;fontSize=20;" parent="ecIpMmpW2eILmPy1O6b8-19" vertex="1">
          <mxGeometry x="30" width="190" height="42" as="geometry">
            <mxRectangle width="190" height="42" as="alternateBounds" />
          </mxGeometry>
        </mxCell>
        <mxCell id="ecIpMmpW2eILmPy1O6b8-22" value="" style="shape=tableRow;horizontal=0;startSize=0;swimlaneHead=0;swimlaneBody=0;fillColor=none;collapsible=0;dropTarget=0;points=[[0,0.5],[1,0.5]];portConstraint=eastwest;top=0;left=0;right=0;bottom=0;fontSize=20;" parent="ecIpMmpW2eILmPy1O6b8-15" vertex="1">
          <mxGeometry y="115" width="220" height="42" as="geometry" />
        </mxCell>
        <mxCell id="ecIpMmpW2eILmPy1O6b8-23" value="" style="shape=partialRectangle;connectable=0;fillColor=none;top=0;left=0;bottom=0;right=0;editable=1;overflow=hidden;whiteSpace=wrap;html=1;fontSize=20;" parent="ecIpMmpW2eILmPy1O6b8-22" vertex="1">
          <mxGeometry width="30" height="42" as="geometry">
            <mxRectangle width="30" height="42" as="alternateBounds" />
          </mxGeometry>
        </mxCell>
        <mxCell id="ecIpMmpW2eILmPy1O6b8-24" value="customer_number" style="shape=partialRectangle;connectable=0;fillColor=none;top=0;left=0;bottom=0;right=0;align=left;spacingLeft=6;overflow=hidden;whiteSpace=wrap;html=1;fontSize=20;" parent="ecIpMmpW2eILmPy1O6b8-22" vertex="1">
          <mxGeometry x="30" width="190" height="42" as="geometry">
            <mxRectangle width="190" height="42" as="alternateBounds" />
          </mxGeometry>
        </mxCell>
        <mxCell id="ecIpMmpW2eILmPy1O6b8-25" value="" style="shape=tableRow;horizontal=0;startSize=0;swimlaneHead=0;swimlaneBody=0;fillColor=none;collapsible=0;dropTarget=0;points=[[0,0.5],[1,0.5]];portConstraint=eastwest;top=0;left=0;right=0;bottom=0;fontSize=20;" parent="ecIpMmpW2eILmPy1O6b8-15" vertex="1">
          <mxGeometry y="157" width="220" height="42" as="geometry" />
        </mxCell>
        <mxCell id="ecIpMmpW2eILmPy1O6b8-26" value="" style="shape=partialRectangle;connectable=0;fillColor=none;top=0;left=0;bottom=0;right=0;editable=1;overflow=hidden;whiteSpace=wrap;html=1;fontSize=20;" parent="ecIpMmpW2eILmPy1O6b8-25" vertex="1">
          <mxGeometry width="30" height="42" as="geometry">
            <mxRectangle width="30" height="42" as="alternateBounds" />
          </mxGeometry>
        </mxCell>
        <mxCell id="ecIpMmpW2eILmPy1O6b8-27" value="first_name" style="shape=partialRectangle;connectable=0;fillColor=none;top=0;left=0;bottom=0;right=0;align=left;spacingLeft=6;overflow=hidden;whiteSpace=wrap;html=1;fontSize=20;" parent="ecIpMmpW2eILmPy1O6b8-25" vertex="1">
          <mxGeometry x="30" width="190" height="42" as="geometry">
            <mxRectangle width="190" height="42" as="alternateBounds" />
          </mxGeometry>
        </mxCell>
        <mxCell id="ecIpMmpW2eILmPy1O6b8-28" value="" style="shape=tableRow;horizontal=0;startSize=0;swimlaneHead=0;swimlaneBody=0;fillColor=none;collapsible=0;dropTarget=0;points=[[0,0.5],[1,0.5]];portConstraint=eastwest;top=0;left=0;right=0;bottom=0;fontSize=20;" parent="ecIpMmpW2eILmPy1O6b8-15" vertex="1">
          <mxGeometry y="199" width="220" height="42" as="geometry" />
        </mxCell>
        <mxCell id="ecIpMmpW2eILmPy1O6b8-29" value="" style="shape=partialRectangle;connectable=0;fillColor=none;top=0;left=0;bottom=0;right=0;editable=1;overflow=hidden;whiteSpace=wrap;html=1;fontSize=20;" parent="ecIpMmpW2eILmPy1O6b8-28" vertex="1">
          <mxGeometry width="30" height="42" as="geometry">
            <mxRectangle width="30" height="42" as="alternateBounds" />
          </mxGeometry>
        </mxCell>
        <mxCell id="ecIpMmpW2eILmPy1O6b8-30" value="last_name" style="shape=partialRectangle;connectable=0;fillColor=none;top=0;left=0;bottom=0;right=0;align=left;spacingLeft=6;overflow=hidden;whiteSpace=wrap;html=1;fontSize=20;" parent="ecIpMmpW2eILmPy1O6b8-28" vertex="1">
          <mxGeometry x="30" width="190" height="42" as="geometry">
            <mxRectangle width="190" height="42" as="alternateBounds" />
          </mxGeometry>
        </mxCell>
        <mxCell id="ecIpMmpW2eILmPy1O6b8-31" value="" style="shape=tableRow;horizontal=0;startSize=0;swimlaneHead=0;swimlaneBody=0;fillColor=none;collapsible=0;dropTarget=0;points=[[0,0.5],[1,0.5]];portConstraint=eastwest;top=0;left=0;right=0;bottom=0;fontSize=20;" parent="ecIpMmpW2eILmPy1O6b8-15" vertex="1">
          <mxGeometry y="241" width="220" height="42" as="geometry" />
        </mxCell>
        <mxCell id="ecIpMmpW2eILmPy1O6b8-32" value="" style="shape=partialRectangle;connectable=0;fillColor=none;top=0;left=0;bottom=0;right=0;editable=1;overflow=hidden;whiteSpace=wrap;html=1;fontSize=20;" parent="ecIpMmpW2eILmPy1O6b8-31" vertex="1">
          <mxGeometry width="30" height="42" as="geometry">
            <mxRectangle width="30" height="42" as="alternateBounds" />
          </mxGeometry>
        </mxCell>
        <mxCell id="ecIpMmpW2eILmPy1O6b8-33" value="country" style="shape=partialRectangle;connectable=0;fillColor=none;top=0;left=0;bottom=0;right=0;align=left;spacingLeft=6;overflow=hidden;whiteSpace=wrap;html=1;fontSize=20;" parent="ecIpMmpW2eILmPy1O6b8-31" vertex="1">
          <mxGeometry x="30" width="190" height="42" as="geometry">
            <mxRectangle width="190" height="42" as="alternateBounds" />
          </mxGeometry>
        </mxCell>
        <mxCell id="ecIpMmpW2eILmPy1O6b8-34" value="" style="shape=tableRow;horizontal=0;startSize=0;swimlaneHead=0;swimlaneBody=0;fillColor=none;collapsible=0;dropTarget=0;points=[[0,0.5],[1,0.5]];portConstraint=eastwest;top=0;left=0;right=0;bottom=0;fontSize=20;" parent="ecIpMmpW2eILmPy1O6b8-15" vertex="1">
          <mxGeometry y="283" width="220" height="42" as="geometry" />
        </mxCell>
        <mxCell id="ecIpMmpW2eILmPy1O6b8-35" value="" style="shape=partialRectangle;connectable=0;fillColor=none;top=0;left=0;bottom=0;right=0;editable=1;overflow=hidden;whiteSpace=wrap;html=1;fontSize=20;" parent="ecIpMmpW2eILmPy1O6b8-34" vertex="1">
          <mxGeometry width="30" height="42" as="geometry">
            <mxRectangle width="30" height="42" as="alternateBounds" />
          </mxGeometry>
        </mxCell>
        <mxCell id="ecIpMmpW2eILmPy1O6b8-36" value="marital_status" style="shape=partialRectangle;connectable=0;fillColor=none;top=0;left=0;bottom=0;right=0;align=left;spacingLeft=6;overflow=hidden;whiteSpace=wrap;html=1;fontSize=20;" parent="ecIpMmpW2eILmPy1O6b8-34" vertex="1">
          <mxGeometry x="30" width="190" height="42" as="geometry">
            <mxRectangle width="190" height="42" as="alternateBounds" />
          </mxGeometry>
        </mxCell>
        <mxCell id="ecIpMmpW2eILmPy1O6b8-37" value="" style="shape=tableRow;horizontal=0;startSize=0;swimlaneHead=0;swimlaneBody=0;fillColor=none;collapsible=0;dropTarget=0;points=[[0,0.5],[1,0.5]];portConstraint=eastwest;top=0;left=0;right=0;bottom=0;fontSize=20;" parent="ecIpMmpW2eILmPy1O6b8-15" vertex="1">
          <mxGeometry y="325" width="220" height="42" as="geometry" />
        </mxCell>
        <mxCell id="ecIpMmpW2eILmPy1O6b8-38" value="" style="shape=partialRectangle;connectable=0;fillColor=none;top=0;left=0;bottom=0;right=0;editable=1;overflow=hidden;whiteSpace=wrap;html=1;fontSize=20;" parent="ecIpMmpW2eILmPy1O6b8-37" vertex="1">
          <mxGeometry width="30" height="42" as="geometry">
            <mxRectangle width="30" height="42" as="alternateBounds" />
          </mxGeometry>
        </mxCell>
        <mxCell id="ecIpMmpW2eILmPy1O6b8-39" value="gender" style="shape=partialRectangle;connectable=0;fillColor=none;top=0;left=0;bottom=0;right=0;align=left;spacingLeft=6;overflow=hidden;whiteSpace=wrap;html=1;fontSize=20;" parent="ecIpMmpW2eILmPy1O6b8-37" vertex="1">
          <mxGeometry x="30" width="190" height="42" as="geometry">
            <mxRectangle width="190" height="42" as="alternateBounds" />
          </mxGeometry>
        </mxCell>
        <mxCell id="ecIpMmpW2eILmPy1O6b8-40" value="" style="shape=tableRow;horizontal=0;startSize=0;swimlaneHead=0;swimlaneBody=0;fillColor=none;collapsible=0;dropTarget=0;points=[[0,0.5],[1,0.5]];portConstraint=eastwest;top=0;left=0;right=0;bottom=0;fontSize=20;" parent="ecIpMmpW2eILmPy1O6b8-15" vertex="1">
          <mxGeometry y="367" width="220" height="42" as="geometry" />
        </mxCell>
        <mxCell id="ecIpMmpW2eILmPy1O6b8-41" value="" style="shape=partialRectangle;connectable=0;fillColor=none;top=0;left=0;bottom=0;right=0;editable=1;overflow=hidden;whiteSpace=wrap;html=1;fontSize=20;" parent="ecIpMmpW2eILmPy1O6b8-40" vertex="1">
          <mxGeometry width="30" height="42" as="geometry">
            <mxRectangle width="30" height="42" as="alternateBounds" />
          </mxGeometry>
        </mxCell>
        <mxCell id="ecIpMmpW2eILmPy1O6b8-42" value="birthdate" style="shape=partialRectangle;connectable=0;fillColor=none;top=0;left=0;bottom=0;right=0;align=left;spacingLeft=6;overflow=hidden;whiteSpace=wrap;html=1;fontSize=20;" parent="ecIpMmpW2eILmPy1O6b8-40" vertex="1">
          <mxGeometry x="30" width="190" height="42" as="geometry">
            <mxRectangle width="190" height="42" as="alternateBounds" />
          </mxGeometry>
        </mxCell>
        <mxCell id="ecIpMmpW2eILmPy1O6b8-43" value="" style="shape=tableRow;horizontal=0;startSize=0;swimlaneHead=0;swimlaneBody=0;fillColor=none;collapsible=0;dropTarget=0;points=[[0,0.5],[1,0.5]];portConstraint=eastwest;top=0;left=0;right=0;bottom=0;fontSize=20;" parent="ecIpMmpW2eILmPy1O6b8-15" vertex="1">
          <mxGeometry y="409" width="220" height="42" as="geometry" />
        </mxCell>
        <mxCell id="ecIpMmpW2eILmPy1O6b8-44" value="" style="shape=partialRectangle;connectable=0;fillColor=none;top=0;left=0;bottom=0;right=0;editable=1;overflow=hidden;whiteSpace=wrap;html=1;fontSize=20;" parent="ecIpMmpW2eILmPy1O6b8-43" vertex="1">
          <mxGeometry width="30" height="42" as="geometry">
            <mxRectangle width="30" height="42" as="alternateBounds" />
          </mxGeometry>
        </mxCell>
        <mxCell id="ecIpMmpW2eILmPy1O6b8-45" value="create_date" style="shape=partialRectangle;connectable=0;fillColor=none;top=0;left=0;bottom=0;right=0;align=left;spacingLeft=6;overflow=hidden;whiteSpace=wrap;html=1;fontSize=20;" parent="ecIpMmpW2eILmPy1O6b8-43" vertex="1">
          <mxGeometry x="30" width="190" height="42" as="geometry">
            <mxRectangle width="190" height="42" as="alternateBounds" />
          </mxGeometry>
        </mxCell>
        <mxCell id="ecIpMmpW2eILmPy1O6b8-46" value="gold.dim_products" style="shape=table;startSize=40;container=1;collapsible=1;childLayout=tableLayout;fixedRows=1;rowLines=0;fontStyle=1;align=center;resizeLast=1;html=1;rounded=1;fillColor=#e3c800;strokeColor=#B09500;fontColor=#000000;fontSize=20;" parent="1" vertex="1">
          <mxGeometry x="727" y="34" width="220" height="497" as="geometry" />
        </mxCell>
        <mxCell id="ecIpMmpW2eILmPy1O6b8-47" value="" style="shape=tableRow;horizontal=0;startSize=0;swimlaneHead=0;swimlaneBody=0;fillColor=none;collapsible=0;dropTarget=0;points=[[0,0.5],[1,0.5]];portConstraint=eastwest;top=0;left=0;right=0;bottom=1;" parent="ecIpMmpW2eILmPy1O6b8-46" vertex="1">
          <mxGeometry y="40" width="220" height="33" as="geometry" />
        </mxCell>
        <mxCell id="ecIpMmpW2eILmPy1O6b8-48" value="PK" style="shape=partialRectangle;connectable=0;fillColor=none;top=0;left=0;bottom=0;right=0;fontStyle=1;overflow=hidden;whiteSpace=wrap;html=1;" parent="ecIpMmpW2eILmPy1O6b8-47" vertex="1">
          <mxGeometry width="30" height="33" as="geometry">
            <mxRectangle width="30" height="33" as="alternateBounds" />
          </mxGeometry>
        </mxCell>
        <mxCell id="ecIpMmpW2eILmPy1O6b8-49" value="&lt;span style=&quot;background-color: rgb(77, 77, 77);&quot;&gt;product_key&lt;/span&gt;" style="shape=partialRectangle;connectable=0;fillColor=none;top=0;left=0;bottom=0;right=0;align=left;spacingLeft=6;fontStyle=5;overflow=hidden;whiteSpace=wrap;html=1;fontSize=20;" parent="ecIpMmpW2eILmPy1O6b8-47" vertex="1">
          <mxGeometry x="30" width="190" height="33" as="geometry">
            <mxRectangle width="190" height="33" as="alternateBounds" />
          </mxGeometry>
        </mxCell>
        <mxCell id="ecIpMmpW2eILmPy1O6b8-50" value="" style="shape=tableRow;horizontal=0;startSize=0;swimlaneHead=0;swimlaneBody=0;fillColor=none;collapsible=0;dropTarget=0;points=[[0,0.5],[1,0.5]];portConstraint=eastwest;top=0;left=0;right=0;bottom=0;fontSize=20;" parent="ecIpMmpW2eILmPy1O6b8-46" vertex="1">
          <mxGeometry y="73" width="220" height="42" as="geometry" />
        </mxCell>
        <mxCell id="ecIpMmpW2eILmPy1O6b8-51" value="" style="shape=partialRectangle;connectable=0;fillColor=none;top=0;left=0;bottom=0;right=0;editable=1;overflow=hidden;whiteSpace=wrap;html=1;fontSize=20;" parent="ecIpMmpW2eILmPy1O6b8-50" vertex="1">
          <mxGeometry width="30" height="42" as="geometry">
            <mxRectangle width="30" height="42" as="alternateBounds" />
          </mxGeometry>
        </mxCell>
        <mxCell id="ecIpMmpW2eILmPy1O6b8-52" value="product_id" style="shape=partialRectangle;connectable=0;fillColor=none;top=0;left=0;bottom=0;right=0;align=left;spacingLeft=6;overflow=hidden;whiteSpace=wrap;html=1;fontSize=20;" parent="ecIpMmpW2eILmPy1O6b8-50" vertex="1">
          <mxGeometry x="30" width="190" height="42" as="geometry">
            <mxRectangle width="190" height="42" as="alternateBounds" />
          </mxGeometry>
        </mxCell>
        <mxCell id="ecIpMmpW2eILmPy1O6b8-53" value="" style="shape=tableRow;horizontal=0;startSize=0;swimlaneHead=0;swimlaneBody=0;fillColor=none;collapsible=0;dropTarget=0;points=[[0,0.5],[1,0.5]];portConstraint=eastwest;top=0;left=0;right=0;bottom=0;fontSize=20;" parent="ecIpMmpW2eILmPy1O6b8-46" vertex="1">
          <mxGeometry y="115" width="220" height="42" as="geometry" />
        </mxCell>
        <mxCell id="ecIpMmpW2eILmPy1O6b8-54" value="" style="shape=partialRectangle;connectable=0;fillColor=none;top=0;left=0;bottom=0;right=0;editable=1;overflow=hidden;whiteSpace=wrap;html=1;fontSize=20;" parent="ecIpMmpW2eILmPy1O6b8-53" vertex="1">
          <mxGeometry width="30" height="42" as="geometry">
            <mxRectangle width="30" height="42" as="alternateBounds" />
          </mxGeometry>
        </mxCell>
        <mxCell id="ecIpMmpW2eILmPy1O6b8-55" value="product_number" style="shape=partialRectangle;connectable=0;fillColor=none;top=0;left=0;bottom=0;right=0;align=left;spacingLeft=6;overflow=hidden;whiteSpace=wrap;html=1;fontSize=20;" parent="ecIpMmpW2eILmPy1O6b8-53" vertex="1">
          <mxGeometry x="30" width="190" height="42" as="geometry">
            <mxRectangle width="190" height="42" as="alternateBounds" />
          </mxGeometry>
        </mxCell>
        <mxCell id="ecIpMmpW2eILmPy1O6b8-56" value="" style="shape=tableRow;horizontal=0;startSize=0;swimlaneHead=0;swimlaneBody=0;fillColor=none;collapsible=0;dropTarget=0;points=[[0,0.5],[1,0.5]];portConstraint=eastwest;top=0;left=0;right=0;bottom=0;fontSize=20;" parent="ecIpMmpW2eILmPy1O6b8-46" vertex="1">
          <mxGeometry y="157" width="220" height="42" as="geometry" />
        </mxCell>
        <mxCell id="ecIpMmpW2eILmPy1O6b8-57" value="" style="shape=partialRectangle;connectable=0;fillColor=none;top=0;left=0;bottom=0;right=0;editable=1;overflow=hidden;whiteSpace=wrap;html=1;fontSize=20;" parent="ecIpMmpW2eILmPy1O6b8-56" vertex="1">
          <mxGeometry width="30" height="42" as="geometry">
            <mxRectangle width="30" height="42" as="alternateBounds" />
          </mxGeometry>
        </mxCell>
        <mxCell id="ecIpMmpW2eILmPy1O6b8-58" value="product_name" style="shape=partialRectangle;connectable=0;fillColor=none;top=0;left=0;bottom=0;right=0;align=left;spacingLeft=6;overflow=hidden;whiteSpace=wrap;html=1;fontSize=20;" parent="ecIpMmpW2eILmPy1O6b8-56" vertex="1">
          <mxGeometry x="30" width="190" height="42" as="geometry">
            <mxRectangle width="190" height="42" as="alternateBounds" />
          </mxGeometry>
        </mxCell>
        <mxCell id="ecIpMmpW2eILmPy1O6b8-59" value="" style="shape=tableRow;horizontal=0;startSize=0;swimlaneHead=0;swimlaneBody=0;fillColor=none;collapsible=0;dropTarget=0;points=[[0,0.5],[1,0.5]];portConstraint=eastwest;top=0;left=0;right=0;bottom=0;fontSize=20;" parent="ecIpMmpW2eILmPy1O6b8-46" vertex="1">
          <mxGeometry y="199" width="220" height="42" as="geometry" />
        </mxCell>
        <mxCell id="ecIpMmpW2eILmPy1O6b8-60" value="" style="shape=partialRectangle;connectable=0;fillColor=none;top=0;left=0;bottom=0;right=0;editable=1;overflow=hidden;whiteSpace=wrap;html=1;fontSize=20;" parent="ecIpMmpW2eILmPy1O6b8-59" vertex="1">
          <mxGeometry width="30" height="42" as="geometry">
            <mxRectangle width="30" height="42" as="alternateBounds" />
          </mxGeometry>
        </mxCell>
        <mxCell id="ecIpMmpW2eILmPy1O6b8-61" value="category_id" style="shape=partialRectangle;connectable=0;fillColor=none;top=0;left=0;bottom=0;right=0;align=left;spacingLeft=6;overflow=hidden;whiteSpace=wrap;html=1;fontSize=20;" parent="ecIpMmpW2eILmPy1O6b8-59" vertex="1">
          <mxGeometry x="30" width="190" height="42" as="geometry">
            <mxRectangle width="190" height="42" as="alternateBounds" />
          </mxGeometry>
        </mxCell>
        <mxCell id="ecIpMmpW2eILmPy1O6b8-62" value="" style="shape=tableRow;horizontal=0;startSize=0;swimlaneHead=0;swimlaneBody=0;fillColor=none;collapsible=0;dropTarget=0;points=[[0,0.5],[1,0.5]];portConstraint=eastwest;top=0;left=0;right=0;bottom=0;fontSize=20;" parent="ecIpMmpW2eILmPy1O6b8-46" vertex="1">
          <mxGeometry y="241" width="220" height="42" as="geometry" />
        </mxCell>
        <mxCell id="ecIpMmpW2eILmPy1O6b8-63" value="" style="shape=partialRectangle;connectable=0;fillColor=none;top=0;left=0;bottom=0;right=0;editable=1;overflow=hidden;whiteSpace=wrap;html=1;fontSize=20;" parent="ecIpMmpW2eILmPy1O6b8-62" vertex="1">
          <mxGeometry width="30" height="42" as="geometry">
            <mxRectangle width="30" height="42" as="alternateBounds" />
          </mxGeometry>
        </mxCell>
        <mxCell id="ecIpMmpW2eILmPy1O6b8-64" value="category" style="shape=partialRectangle;connectable=0;fillColor=none;top=0;left=0;bottom=0;right=0;align=left;spacingLeft=6;overflow=hidden;whiteSpace=wrap;html=1;fontSize=20;" parent="ecIpMmpW2eILmPy1O6b8-62" vertex="1">
          <mxGeometry x="30" width="190" height="42" as="geometry">
            <mxRectangle width="190" height="42" as="alternateBounds" />
          </mxGeometry>
        </mxCell>
        <mxCell id="ecIpMmpW2eILmPy1O6b8-65" value="" style="shape=tableRow;horizontal=0;startSize=0;swimlaneHead=0;swimlaneBody=0;fillColor=none;collapsible=0;dropTarget=0;points=[[0,0.5],[1,0.5]];portConstraint=eastwest;top=0;left=0;right=0;bottom=0;fontSize=20;" parent="ecIpMmpW2eILmPy1O6b8-46" vertex="1">
          <mxGeometry y="283" width="220" height="42" as="geometry" />
        </mxCell>
        <mxCell id="ecIpMmpW2eILmPy1O6b8-66" value="" style="shape=partialRectangle;connectable=0;fillColor=none;top=0;left=0;bottom=0;right=0;editable=1;overflow=hidden;whiteSpace=wrap;html=1;fontSize=20;" parent="ecIpMmpW2eILmPy1O6b8-65" vertex="1">
          <mxGeometry width="30" height="42" as="geometry">
            <mxRectangle width="30" height="42" as="alternateBounds" />
          </mxGeometry>
        </mxCell>
        <mxCell id="ecIpMmpW2eILmPy1O6b8-67" value="subcategory" style="shape=partialRectangle;connectable=0;fillColor=none;top=0;left=0;bottom=0;right=0;align=left;spacingLeft=6;overflow=hidden;whiteSpace=wrap;html=1;fontSize=20;" parent="ecIpMmpW2eILmPy1O6b8-65" vertex="1">
          <mxGeometry x="30" width="190" height="42" as="geometry">
            <mxRectangle width="190" height="42" as="alternateBounds" />
          </mxGeometry>
        </mxCell>
        <mxCell id="ecIpMmpW2eILmPy1O6b8-68" value="" style="shape=tableRow;horizontal=0;startSize=0;swimlaneHead=0;swimlaneBody=0;fillColor=none;collapsible=0;dropTarget=0;points=[[0,0.5],[1,0.5]];portConstraint=eastwest;top=0;left=0;right=0;bottom=0;fontSize=20;" parent="ecIpMmpW2eILmPy1O6b8-46" vertex="1">
          <mxGeometry y="325" width="220" height="42" as="geometry" />
        </mxCell>
        <mxCell id="ecIpMmpW2eILmPy1O6b8-69" value="" style="shape=partialRectangle;connectable=0;fillColor=none;top=0;left=0;bottom=0;right=0;editable=1;overflow=hidden;whiteSpace=wrap;html=1;fontSize=20;" parent="ecIpMmpW2eILmPy1O6b8-68" vertex="1">
          <mxGeometry width="30" height="42" as="geometry">
            <mxRectangle width="30" height="42" as="alternateBounds" />
          </mxGeometry>
        </mxCell>
        <mxCell id="ecIpMmpW2eILmPy1O6b8-70" value="maintenance" style="shape=partialRectangle;connectable=0;fillColor=none;top=0;left=0;bottom=0;right=0;align=left;spacingLeft=6;overflow=hidden;whiteSpace=wrap;html=1;fontSize=20;" parent="ecIpMmpW2eILmPy1O6b8-68" vertex="1">
          <mxGeometry x="30" width="190" height="42" as="geometry">
            <mxRectangle width="190" height="42" as="alternateBounds" />
          </mxGeometry>
        </mxCell>
        <mxCell id="ecIpMmpW2eILmPy1O6b8-71" value="" style="shape=tableRow;horizontal=0;startSize=0;swimlaneHead=0;swimlaneBody=0;fillColor=none;collapsible=0;dropTarget=0;points=[[0,0.5],[1,0.5]];portConstraint=eastwest;top=0;left=0;right=0;bottom=0;fontSize=20;" parent="ecIpMmpW2eILmPy1O6b8-46" vertex="1">
          <mxGeometry y="367" width="220" height="42" as="geometry" />
        </mxCell>
        <mxCell id="ecIpMmpW2eILmPy1O6b8-72" value="" style="shape=partialRectangle;connectable=0;fillColor=none;top=0;left=0;bottom=0;right=0;editable=1;overflow=hidden;whiteSpace=wrap;html=1;fontSize=20;" parent="ecIpMmpW2eILmPy1O6b8-71" vertex="1">
          <mxGeometry width="30" height="42" as="geometry">
            <mxRectangle width="30" height="42" as="alternateBounds" />
          </mxGeometry>
        </mxCell>
        <mxCell id="ecIpMmpW2eILmPy1O6b8-73" value="cost" style="shape=partialRectangle;connectable=0;fillColor=none;top=0;left=0;bottom=0;right=0;align=left;spacingLeft=6;overflow=hidden;whiteSpace=wrap;html=1;fontSize=20;" parent="ecIpMmpW2eILmPy1O6b8-71" vertex="1">
          <mxGeometry x="30" width="190" height="42" as="geometry">
            <mxRectangle width="190" height="42" as="alternateBounds" />
          </mxGeometry>
        </mxCell>
        <mxCell id="ecIpMmpW2eILmPy1O6b8-74" value="" style="shape=tableRow;horizontal=0;startSize=0;swimlaneHead=0;swimlaneBody=0;fillColor=none;collapsible=0;dropTarget=0;points=[[0,0.5],[1,0.5]];portConstraint=eastwest;top=0;left=0;right=0;bottom=0;fontSize=20;" parent="ecIpMmpW2eILmPy1O6b8-46" vertex="1">
          <mxGeometry y="409" width="220" height="42" as="geometry" />
        </mxCell>
        <mxCell id="ecIpMmpW2eILmPy1O6b8-75" value="" style="shape=partialRectangle;connectable=0;fillColor=none;top=0;left=0;bottom=0;right=0;editable=1;overflow=hidden;whiteSpace=wrap;html=1;fontSize=20;" parent="ecIpMmpW2eILmPy1O6b8-74" vertex="1">
          <mxGeometry width="30" height="42" as="geometry">
            <mxRectangle width="30" height="42" as="alternateBounds" />
          </mxGeometry>
        </mxCell>
        <mxCell id="ecIpMmpW2eILmPy1O6b8-76" value="product_line" style="shape=partialRectangle;connectable=0;fillColor=none;top=0;left=0;bottom=0;right=0;align=left;spacingLeft=6;overflow=hidden;whiteSpace=wrap;html=1;fontSize=20;" parent="ecIpMmpW2eILmPy1O6b8-74" vertex="1">
          <mxGeometry x="30" width="190" height="42" as="geometry">
            <mxRectangle width="190" height="42" as="alternateBounds" />
          </mxGeometry>
        </mxCell>
        <mxCell id="ecIpMmpW2eILmPy1O6b8-77" value="" style="shape=tableRow;horizontal=0;startSize=0;swimlaneHead=0;swimlaneBody=0;fillColor=none;collapsible=0;dropTarget=0;points=[[0,0.5],[1,0.5]];portConstraint=eastwest;top=0;left=0;right=0;bottom=0;fontSize=20;" parent="ecIpMmpW2eILmPy1O6b8-46" vertex="1">
          <mxGeometry y="451" width="220" height="42" as="geometry" />
        </mxCell>
        <mxCell id="ecIpMmpW2eILmPy1O6b8-78" value="" style="shape=partialRectangle;connectable=0;fillColor=none;top=0;left=0;bottom=0;right=0;editable=1;overflow=hidden;whiteSpace=wrap;html=1;fontSize=20;" parent="ecIpMmpW2eILmPy1O6b8-77" vertex="1">
          <mxGeometry width="30" height="42" as="geometry">
            <mxRectangle width="30" height="42" as="alternateBounds" />
          </mxGeometry>
        </mxCell>
        <mxCell id="ecIpMmpW2eILmPy1O6b8-79" value="start_date" style="shape=partialRectangle;connectable=0;fillColor=none;top=0;left=0;bottom=0;right=0;align=left;spacingLeft=6;overflow=hidden;whiteSpace=wrap;html=1;fontSize=20;" parent="ecIpMmpW2eILmPy1O6b8-77" vertex="1">
          <mxGeometry x="30" width="190" height="42" as="geometry">
            <mxRectangle width="190" height="42" as="alternateBounds" />
          </mxGeometry>
        </mxCell>
        <mxCell id="ecIpMmpW2eILmPy1O6b8-80" value="gold.fact_sales" style="shape=table;startSize=40;container=1;collapsible=1;childLayout=tableLayout;fixedRows=1;rowLines=0;fontStyle=1;align=center;resizeLast=1;html=1;rounded=1;fillColor=#1ba1e2;strokeColor=#006EAF;fontColor=#ffffff;fontSize=20;" parent="1" vertex="1">
          <mxGeometry x="416" y="84" width="220" height="422" as="geometry" />
        </mxCell>
        <mxCell id="ecIpMmpW2eILmPy1O6b8-84" value="" style="shape=tableRow;horizontal=0;startSize=0;swimlaneHead=0;swimlaneBody=0;fillColor=none;collapsible=0;dropTarget=0;points=[[0,0.5],[1,0.5]];portConstraint=eastwest;top=0;left=0;right=0;bottom=0;fontSize=20;" parent="ecIpMmpW2eILmPy1O6b8-80" vertex="1">
          <mxGeometry y="40" width="220" height="42" as="geometry" />
        </mxCell>
        <mxCell id="ecIpMmpW2eILmPy1O6b8-85" value="" style="shape=partialRectangle;connectable=0;fillColor=none;top=0;left=0;bottom=0;right=0;editable=1;overflow=hidden;whiteSpace=wrap;html=1;fontSize=20;" parent="ecIpMmpW2eILmPy1O6b8-84" vertex="1">
          <mxGeometry width="44" height="42" as="geometry">
            <mxRectangle width="44" height="42" as="alternateBounds" />
          </mxGeometry>
        </mxCell>
        <mxCell id="ecIpMmpW2eILmPy1O6b8-86" value="order_number" style="shape=partialRectangle;connectable=0;fillColor=none;top=0;left=0;bottom=0;right=0;align=left;spacingLeft=6;overflow=hidden;whiteSpace=wrap;html=1;fontSize=20;" parent="ecIpMmpW2eILmPy1O6b8-84" vertex="1">
          <mxGeometry x="44" width="176" height="42" as="geometry">
            <mxRectangle width="176" height="42" as="alternateBounds" />
          </mxGeometry>
        </mxCell>
        <mxCell id="ecIpMmpW2eILmPy1O6b8-87" value="" style="shape=tableRow;horizontal=0;startSize=0;swimlaneHead=0;swimlaneBody=0;fillColor=none;collapsible=0;dropTarget=0;points=[[0,0.5],[1,0.5]];portConstraint=eastwest;top=0;left=0;right=0;bottom=0;fontSize=20;" parent="ecIpMmpW2eILmPy1O6b8-80" vertex="1">
          <mxGeometry y="82" width="220" height="42" as="geometry" />
        </mxCell>
        <mxCell id="ecIpMmpW2eILmPy1O6b8-88" value="FK1" style="shape=partialRectangle;connectable=0;fillColor=none;top=0;left=0;bottom=0;right=0;editable=1;overflow=hidden;whiteSpace=wrap;html=1;fontSize=20;" parent="ecIpMmpW2eILmPy1O6b8-87" vertex="1">
          <mxGeometry width="44" height="42" as="geometry">
            <mxRectangle width="44" height="42" as="alternateBounds" />
          </mxGeometry>
        </mxCell>
        <mxCell id="ecIpMmpW2eILmPy1O6b8-89" value="&lt;span style=&quot;background-color: rgb(77, 77, 77);&quot;&gt;product_key&lt;/span&gt;" style="shape=partialRectangle;connectable=0;fillColor=none;top=0;left=0;bottom=0;right=0;align=left;spacingLeft=6;overflow=hidden;whiteSpace=wrap;html=1;fontSize=20;" parent="ecIpMmpW2eILmPy1O6b8-87" vertex="1">
          <mxGeometry x="44" width="176" height="42" as="geometry">
            <mxRectangle width="176" height="42" as="alternateBounds" />
          </mxGeometry>
        </mxCell>
        <mxCell id="ecIpMmpW2eILmPy1O6b8-90" value="" style="shape=tableRow;horizontal=0;startSize=0;swimlaneHead=0;swimlaneBody=0;fillColor=none;collapsible=0;dropTarget=0;points=[[0,0.5],[1,0.5]];portConstraint=eastwest;top=0;left=0;right=0;bottom=0;fontSize=20;" parent="ecIpMmpW2eILmPy1O6b8-80" vertex="1">
          <mxGeometry y="124" width="220" height="42" as="geometry" />
        </mxCell>
        <mxCell id="ecIpMmpW2eILmPy1O6b8-91" value="FK2" style="shape=partialRectangle;connectable=0;fillColor=none;top=0;left=0;bottom=0;right=0;editable=1;overflow=hidden;whiteSpace=wrap;html=1;fontSize=20;" parent="ecIpMmpW2eILmPy1O6b8-90" vertex="1">
          <mxGeometry width="44" height="42" as="geometry">
            <mxRectangle width="44" height="42" as="alternateBounds" />
          </mxGeometry>
        </mxCell>
        <mxCell id="ecIpMmpW2eILmPy1O6b8-92" value="&lt;span style=&quot;background-color: rgb(77, 77, 77);&quot;&gt;customer_key&lt;/span&gt;" style="shape=partialRectangle;connectable=0;fillColor=none;top=0;left=0;bottom=0;right=0;align=left;spacingLeft=6;overflow=hidden;whiteSpace=wrap;html=1;fontSize=20;" parent="ecIpMmpW2eILmPy1O6b8-90" vertex="1">
          <mxGeometry x="44" width="176" height="42" as="geometry">
            <mxRectangle width="176" height="42" as="alternateBounds" />
          </mxGeometry>
        </mxCell>
        <mxCell id="ecIpMmpW2eILmPy1O6b8-93" value="" style="shape=tableRow;horizontal=0;startSize=0;swimlaneHead=0;swimlaneBody=0;fillColor=none;collapsible=0;dropTarget=0;points=[[0,0.5],[1,0.5]];portConstraint=eastwest;top=0;left=0;right=0;bottom=0;fontSize=20;" parent="ecIpMmpW2eILmPy1O6b8-80" vertex="1">
          <mxGeometry y="166" width="220" height="42" as="geometry" />
        </mxCell>
        <mxCell id="ecIpMmpW2eILmPy1O6b8-94" value="" style="shape=partialRectangle;connectable=0;fillColor=none;top=0;left=0;bottom=0;right=0;editable=1;overflow=hidden;whiteSpace=wrap;html=1;fontSize=20;" parent="ecIpMmpW2eILmPy1O6b8-93" vertex="1">
          <mxGeometry width="44" height="42" as="geometry">
            <mxRectangle width="44" height="42" as="alternateBounds" />
          </mxGeometry>
        </mxCell>
        <mxCell id="ecIpMmpW2eILmPy1O6b8-95" value="order_date" style="shape=partialRectangle;connectable=0;fillColor=none;top=0;left=0;bottom=0;right=0;align=left;spacingLeft=6;overflow=hidden;whiteSpace=wrap;html=1;fontSize=20;" parent="ecIpMmpW2eILmPy1O6b8-93" vertex="1">
          <mxGeometry x="44" width="176" height="42" as="geometry">
            <mxRectangle width="176" height="42" as="alternateBounds" />
          </mxGeometry>
        </mxCell>
        <mxCell id="ecIpMmpW2eILmPy1O6b8-96" value="" style="shape=tableRow;horizontal=0;startSize=0;swimlaneHead=0;swimlaneBody=0;fillColor=none;collapsible=0;dropTarget=0;points=[[0,0.5],[1,0.5]];portConstraint=eastwest;top=0;left=0;right=0;bottom=0;fontSize=20;" parent="ecIpMmpW2eILmPy1O6b8-80" vertex="1">
          <mxGeometry y="208" width="220" height="42" as="geometry" />
        </mxCell>
        <mxCell id="ecIpMmpW2eILmPy1O6b8-97" value="" style="shape=partialRectangle;connectable=0;fillColor=none;top=0;left=0;bottom=0;right=0;editable=1;overflow=hidden;whiteSpace=wrap;html=1;fontSize=20;" parent="ecIpMmpW2eILmPy1O6b8-96" vertex="1">
          <mxGeometry width="44" height="42" as="geometry">
            <mxRectangle width="44" height="42" as="alternateBounds" />
          </mxGeometry>
        </mxCell>
        <mxCell id="ecIpMmpW2eILmPy1O6b8-98" value="shipping_date" style="shape=partialRectangle;connectable=0;fillColor=none;top=0;left=0;bottom=0;right=0;align=left;spacingLeft=6;overflow=hidden;whiteSpace=wrap;html=1;fontSize=20;" parent="ecIpMmpW2eILmPy1O6b8-96" vertex="1">
          <mxGeometry x="44" width="176" height="42" as="geometry">
            <mxRectangle width="176" height="42" as="alternateBounds" />
          </mxGeometry>
        </mxCell>
        <mxCell id="ecIpMmpW2eILmPy1O6b8-99" value="" style="shape=tableRow;horizontal=0;startSize=0;swimlaneHead=0;swimlaneBody=0;fillColor=none;collapsible=0;dropTarget=0;points=[[0,0.5],[1,0.5]];portConstraint=eastwest;top=0;left=0;right=0;bottom=0;fontSize=20;" parent="ecIpMmpW2eILmPy1O6b8-80" vertex="1">
          <mxGeometry y="250" width="220" height="42" as="geometry" />
        </mxCell>
        <mxCell id="ecIpMmpW2eILmPy1O6b8-100" value="" style="shape=partialRectangle;connectable=0;fillColor=none;top=0;left=0;bottom=0;right=0;editable=1;overflow=hidden;whiteSpace=wrap;html=1;fontSize=20;" parent="ecIpMmpW2eILmPy1O6b8-99" vertex="1">
          <mxGeometry width="44" height="42" as="geometry">
            <mxRectangle width="44" height="42" as="alternateBounds" />
          </mxGeometry>
        </mxCell>
        <mxCell id="ecIpMmpW2eILmPy1O6b8-101" value="due_date" style="shape=partialRectangle;connectable=0;fillColor=none;top=0;left=0;bottom=0;right=0;align=left;spacingLeft=6;overflow=hidden;whiteSpace=wrap;html=1;fontSize=20;" parent="ecIpMmpW2eILmPy1O6b8-99" vertex="1">
          <mxGeometry x="44" width="176" height="42" as="geometry">
            <mxRectangle width="176" height="42" as="alternateBounds" />
          </mxGeometry>
        </mxCell>
        <mxCell id="ecIpMmpW2eILmPy1O6b8-102" value="" style="shape=tableRow;horizontal=0;startSize=0;swimlaneHead=0;swimlaneBody=0;fillColor=none;collapsible=0;dropTarget=0;points=[[0,0.5],[1,0.5]];portConstraint=eastwest;top=0;left=0;right=0;bottom=0;fontSize=20;" parent="ecIpMmpW2eILmPy1O6b8-80" vertex="1">
          <mxGeometry y="292" width="220" height="42" as="geometry" />
        </mxCell>
        <mxCell id="ecIpMmpW2eILmPy1O6b8-103" value="" style="shape=partialRectangle;connectable=0;fillColor=none;top=0;left=0;bottom=0;right=0;editable=1;overflow=hidden;whiteSpace=wrap;html=1;fontSize=20;" parent="ecIpMmpW2eILmPy1O6b8-102" vertex="1">
          <mxGeometry width="44" height="42" as="geometry">
            <mxRectangle width="44" height="42" as="alternateBounds" />
          </mxGeometry>
        </mxCell>
        <mxCell id="ecIpMmpW2eILmPy1O6b8-104" value="sales_amount" style="shape=partialRectangle;connectable=0;fillColor=none;top=0;left=0;bottom=0;right=0;align=left;spacingLeft=6;overflow=hidden;whiteSpace=wrap;html=1;fontSize=20;" parent="ecIpMmpW2eILmPy1O6b8-102" vertex="1">
          <mxGeometry x="44" width="176" height="42" as="geometry">
            <mxRectangle width="176" height="42" as="alternateBounds" />
          </mxGeometry>
        </mxCell>
        <mxCell id="ecIpMmpW2eILmPy1O6b8-105" value="" style="shape=tableRow;horizontal=0;startSize=0;swimlaneHead=0;swimlaneBody=0;fillColor=none;collapsible=0;dropTarget=0;points=[[0,0.5],[1,0.5]];portConstraint=eastwest;top=0;left=0;right=0;bottom=0;fontSize=20;" parent="ecIpMmpW2eILmPy1O6b8-80" vertex="1">
          <mxGeometry y="334" width="220" height="42" as="geometry" />
        </mxCell>
        <mxCell id="ecIpMmpW2eILmPy1O6b8-106" value="" style="shape=partialRectangle;connectable=0;fillColor=none;top=0;left=0;bottom=0;right=0;editable=1;overflow=hidden;whiteSpace=wrap;html=1;fontSize=20;" parent="ecIpMmpW2eILmPy1O6b8-105" vertex="1">
          <mxGeometry width="44" height="42" as="geometry">
            <mxRectangle width="44" height="42" as="alternateBounds" />
          </mxGeometry>
        </mxCell>
        <mxCell id="ecIpMmpW2eILmPy1O6b8-107" value="quantity" style="shape=partialRectangle;connectable=0;fillColor=none;top=0;left=0;bottom=0;right=0;align=left;spacingLeft=6;overflow=hidden;whiteSpace=wrap;html=1;fontSize=20;" parent="ecIpMmpW2eILmPy1O6b8-105" vertex="1">
          <mxGeometry x="44" width="176" height="42" as="geometry">
            <mxRectangle width="176" height="42" as="alternateBounds" />
          </mxGeometry>
        </mxCell>
        <mxCell id="ecIpMmpW2eILmPy1O6b8-108" value="" style="shape=tableRow;horizontal=0;startSize=0;swimlaneHead=0;swimlaneBody=0;fillColor=none;collapsible=0;dropTarget=0;points=[[0,0.5],[1,0.5]];portConstraint=eastwest;top=0;left=0;right=0;bottom=0;fontSize=20;" parent="ecIpMmpW2eILmPy1O6b8-80" vertex="1">
          <mxGeometry y="376" width="220" height="42" as="geometry" />
        </mxCell>
        <mxCell id="ecIpMmpW2eILmPy1O6b8-109" value="" style="shape=partialRectangle;connectable=0;fillColor=none;top=0;left=0;bottom=0;right=0;editable=1;overflow=hidden;whiteSpace=wrap;html=1;fontSize=20;" parent="ecIpMmpW2eILmPy1O6b8-108" vertex="1">
          <mxGeometry width="44" height="42" as="geometry">
            <mxRectangle width="44" height="42" as="alternateBounds" />
          </mxGeometry>
        </mxCell>
        <mxCell id="ecIpMmpW2eILmPy1O6b8-110" value="price" style="shape=partialRectangle;connectable=0;fillColor=none;top=0;left=0;bottom=0;right=0;align=left;spacingLeft=6;overflow=hidden;whiteSpace=wrap;html=1;fontSize=20;" parent="ecIpMmpW2eILmPy1O6b8-108" vertex="1">
          <mxGeometry x="44" width="176" height="42" as="geometry">
            <mxRectangle width="176" height="42" as="alternateBounds" />
          </mxGeometry>
        </mxCell>
        <mxCell id="ecIpMmpW2eILmPy1O6b8-114" value="" style="edgeStyle=entityRelationEdgeStyle;fontSize=12;html=1;endArrow=ERzeroToMany;startArrow=ERmandOne;rounded=0;entryX=0;entryY=0.5;entryDx=0;entryDy=0;" parent="1" source="ecIpMmpW2eILmPy1O6b8-16" target="ecIpMmpW2eILmPy1O6b8-90" edge="1">
          <mxGeometry width="100" height="100" relative="1" as="geometry">
            <mxPoint x="320" y="340" as="sourcePoint" />
            <mxPoint x="420" y="240" as="targetPoint" />
          </mxGeometry>
        </mxCell>
        <mxCell id="SnGe2zpUIr1VV1KxpIVS-1" value="" style="edgeStyle=entityRelationEdgeStyle;fontSize=12;html=1;endArrow=ERzeroToMany;startArrow=ERmandOne;rounded=0;" edge="1" parent="1" source="ecIpMmpW2eILmPy1O6b8-47" target="ecIpMmpW2eILmPy1O6b8-87">
          <mxGeometry width="100" height="100" relative="1" as="geometry">
            <mxPoint x="650" y="370" as="sourcePoint" />
            <mxPoint x="750" y="270" as="targetPoint" />
          </mxGeometry>
        </mxCell>
      </root>
    </mxGraphModel>
  </diagram>
</mxfile>
